<mxfile host="app.diagrams.net" agent="Mozilla/5.0 (Macintosh; Intel Mac OS X 10_15_7) AppleWebKit/537.36 (KHTML, like Gecko) Chrome/128.0.0.0 Safari/537.36" version="24.7.16" pages="2">
  <diagram name="ActivityDiagram" id="929967ad-93f9-6ef4-fab6-5d389245f69c">
    <mxGraphModel dx="1706" dy="714" grid="1" gridSize="10" guides="1" tooltips="1" connect="1" arrows="1" fold="1" page="1" pageScale="1.5" pageWidth="1169" pageHeight="826" background="none" math="0" shadow="0">
      <root>
        <mxCell id="0" style=";html=1;" />
        <mxCell id="1" style=";html=1;" parent="0" />
        <mxCell id="Wp4pYhGXArnTnSWNhsdR-23" value="&lt;div style=&quot;&quot;&gt;&lt;br&gt;&lt;/div&gt;" style="rounded=0;whiteSpace=wrap;html=1;align=left;" vertex="1" parent="1">
          <mxGeometry x="320" y="190" width="1160" height="730" as="geometry" />
        </mxCell>
        <mxCell id="Wp4pYhGXArnTnSWNhsdR-11" value="&lt;div style=&quot;&quot;&gt;&lt;b&gt;&lt;font style=&quot;font-size: 14px;&quot;&gt;&lt;span style=&quot;background-color: initial;&quot;&gt;Preconditions&lt;/span&gt;&lt;span style=&quot;background-color: initial;&quot;&gt;: User must have an account to log in; valid pet details must be provided for pet registration.&lt;/span&gt;&lt;/font&gt;&lt;/b&gt;&lt;/div&gt;" style="rounded=0;whiteSpace=wrap;html=1;align=left;" vertex="1" parent="1">
          <mxGeometry x="320" y="130" width="1160" height="60" as="geometry" />
        </mxCell>
        <mxCell id="Wp4pYhGXArnTnSWNhsdR-12" value="&lt;b&gt;&lt;font style=&quot;font-size: 14px;&quot;&gt;Postconditions: User account is created; pet account is successfully registered; medical records are displayed.&lt;/font&gt;&lt;/b&gt;" style="rounded=0;whiteSpace=wrap;html=1;align=left;" vertex="1" parent="1">
          <mxGeometry x="320" y="920" width="1160" height="60" as="geometry" />
        </mxCell>
        <mxCell id="Wp4pYhGXArnTnSWNhsdR-13" value="&lt;b&gt;&lt;font style=&quot;font-size: 14px;&quot;&gt;Use Case: Create User Account&lt;/font&gt;&lt;/b&gt;" style="rounded=0;whiteSpace=wrap;html=1;align=left;" vertex="1" parent="1">
          <mxGeometry x="320" y="70" width="520" height="60" as="geometry" />
        </mxCell>
        <mxCell id="Wp4pYhGXArnTnSWNhsdR-16" value="" style="edgeStyle=orthogonalEdgeStyle;rounded=0;orthogonalLoop=1;jettySize=auto;html=1;" edge="1" parent="1" target="Wp4pYhGXArnTnSWNhsdR-15">
          <mxGeometry relative="1" as="geometry">
            <mxPoint x="505" y="260" as="sourcePoint" />
          </mxGeometry>
        </mxCell>
        <mxCell id="Wp4pYhGXArnTnSWNhsdR-26" value="" style="edgeStyle=orthogonalEdgeStyle;rounded=0;orthogonalLoop=1;jettySize=auto;html=1;entryX=0.5;entryY=0;entryDx=0;entryDy=0;" edge="1" parent="1" source="Wp4pYhGXArnTnSWNhsdR-19" target="Wp4pYhGXArnTnSWNhsdR-22">
          <mxGeometry relative="1" as="geometry">
            <mxPoint x="455" y="335" as="targetPoint" />
          </mxGeometry>
        </mxCell>
        <mxCell id="Wp4pYhGXArnTnSWNhsdR-19" value="" style="ellipse;fillColor=strokeColor;html=1;" vertex="1" parent="1">
          <mxGeometry x="440" y="230" width="30" height="30" as="geometry" />
        </mxCell>
        <mxCell id="Wp4pYhGXArnTnSWNhsdR-28" value="" style="edgeStyle=orthogonalEdgeStyle;rounded=0;orthogonalLoop=1;jettySize=auto;html=1;" edge="1" parent="1" source="Wp4pYhGXArnTnSWNhsdR-20" target="Wp4pYhGXArnTnSWNhsdR-27">
          <mxGeometry relative="1" as="geometry" />
        </mxCell>
        <mxCell id="Wp4pYhGXArnTnSWNhsdR-20" value="The system shall validate the email format and password strength upon registration submission." style="whiteSpace=wrap;html=1;fillColor=#FFFFFF;" vertex="1" parent="1">
          <mxGeometry x="817" y="295" width="223" height="60" as="geometry" />
        </mxCell>
        <mxCell id="Wp4pYhGXArnTnSWNhsdR-21" value="" style="edgeStyle=orthogonalEdgeStyle;rounded=0;orthogonalLoop=1;jettySize=auto;html=1;" edge="1" parent="1" source="Wp4pYhGXArnTnSWNhsdR-22" target="Wp4pYhGXArnTnSWNhsdR-20">
          <mxGeometry relative="1" as="geometry" />
        </mxCell>
        <mxCell id="Wp4pYhGXArnTnSWNhsdR-22" value="User enters email, password and submit registration" style="whiteSpace=wrap;html=1;fillColor=#FFFFFF;" vertex="1" parent="1">
          <mxGeometry x="367.5" y="300" width="175" height="50" as="geometry" />
        </mxCell>
        <mxCell id="Wp4pYhGXArnTnSWNhsdR-30" value="" style="edgeStyle=orthogonalEdgeStyle;rounded=0;orthogonalLoop=1;jettySize=auto;html=1;" edge="1" parent="1" source="Wp4pYhGXArnTnSWNhsdR-27" target="Wp4pYhGXArnTnSWNhsdR-29">
          <mxGeometry relative="1" as="geometry" />
        </mxCell>
        <mxCell id="Wp4pYhGXArnTnSWNhsdR-27" value="The system shall create a user account upon successful validation and store user information securely." style="whiteSpace=wrap;html=1;fillColor=#FFFFFF;" vertex="1" parent="1">
          <mxGeometry x="817" y="380" width="223" height="60" as="geometry" />
        </mxCell>
        <mxCell id="Wp4pYhGXArnTnSWNhsdR-32" value="" style="edgeStyle=orthogonalEdgeStyle;rounded=0;orthogonalLoop=1;jettySize=auto;html=1;" edge="1" parent="1" source="Wp4pYhGXArnTnSWNhsdR-29" target="Wp4pYhGXArnTnSWNhsdR-31">
          <mxGeometry relative="1" as="geometry" />
        </mxCell>
        <mxCell id="Wp4pYhGXArnTnSWNhsdR-29" value="The system shall send a confirmation email to the user after account creation." style="whiteSpace=wrap;html=1;fillColor=#FFFFFF;" vertex="1" parent="1">
          <mxGeometry x="817" y="460" width="223" height="60" as="geometry" />
        </mxCell>
        <mxCell id="Wp4pYhGXArnTnSWNhsdR-34" value="" style="edgeStyle=orthogonalEdgeStyle;rounded=0;orthogonalLoop=1;jettySize=auto;html=1;" edge="1" parent="1" source="Wp4pYhGXArnTnSWNhsdR-31" target="Wp4pYhGXArnTnSWNhsdR-33">
          <mxGeometry relative="1" as="geometry">
            <Array as="points">
              <mxPoint x="472" y="530" />
              <mxPoint x="929" y="530" />
            </Array>
          </mxGeometry>
        </mxCell>
        <mxCell id="Wp4pYhGXArnTnSWNhsdR-31" value="User enters email, password and submit login form" style="whiteSpace=wrap;html=1;fillColor=#FFFFFF;" vertex="1" parent="1">
          <mxGeometry x="360" y="460" width="223" height="60" as="geometry" />
        </mxCell>
        <mxCell id="Wp4pYhGXArnTnSWNhsdR-36" value="" style="edgeStyle=orthogonalEdgeStyle;rounded=0;orthogonalLoop=1;jettySize=auto;html=1;" edge="1" parent="1" source="Wp4pYhGXArnTnSWNhsdR-33" target="Wp4pYhGXArnTnSWNhsdR-35">
          <mxGeometry relative="1" as="geometry" />
        </mxCell>
        <mxCell id="Wp4pYhGXArnTnSWNhsdR-33" value="The system shall validate and redirect users to dashboard upon successful authentication." style="whiteSpace=wrap;html=1;fillColor=#FFFFFF;" vertex="1" parent="1">
          <mxGeometry x="817" y="550" width="223" height="60" as="geometry" />
        </mxCell>
        <mxCell id="Wp4pYhGXArnTnSWNhsdR-38" value="" style="edgeStyle=orthogonalEdgeStyle;rounded=0;orthogonalLoop=1;jettySize=auto;html=1;" edge="1" parent="1" source="Wp4pYhGXArnTnSWNhsdR-35" target="Wp4pYhGXArnTnSWNhsdR-37">
          <mxGeometry relative="1" as="geometry">
            <Array as="points">
              <mxPoint x="472" y="620" />
              <mxPoint x="931" y="620" />
            </Array>
          </mxGeometry>
        </mxCell>
        <mxCell id="Wp4pYhGXArnTnSWNhsdR-35" value="User fill in pet details and submit pet registration" style="whiteSpace=wrap;html=1;fillColor=#FFFFFF;" vertex="1" parent="1">
          <mxGeometry x="360" y="550" width="223" height="60" as="geometry" />
        </mxCell>
        <mxCell id="Wp4pYhGXArnTnSWNhsdR-40" value="" style="edgeStyle=orthogonalEdgeStyle;rounded=0;orthogonalLoop=1;jettySize=auto;html=1;" edge="1" parent="1" source="Wp4pYhGXArnTnSWNhsdR-37" target="Wp4pYhGXArnTnSWNhsdR-39">
          <mxGeometry relative="1" as="geometry" />
        </mxCell>
        <mxCell id="Wp4pYhGXArnTnSWNhsdR-37" value="The system shall create a pet account upon successful validation and notify the user of the successful creation." style="whiteSpace=wrap;html=1;fillColor=#FFFFFF;" vertex="1" parent="1">
          <mxGeometry x="820" y="640" width="223" height="60" as="geometry" />
        </mxCell>
        <mxCell id="Wp4pYhGXArnTnSWNhsdR-42" value="" style="edgeStyle=orthogonalEdgeStyle;rounded=0;orthogonalLoop=1;jettySize=auto;html=1;" edge="1" parent="1" source="Wp4pYhGXArnTnSWNhsdR-39" target="Wp4pYhGXArnTnSWNhsdR-41">
          <mxGeometry relative="1" as="geometry" />
        </mxCell>
        <mxCell id="Wp4pYhGXArnTnSWNhsdR-39" value="The system shall allow users to select a specific pet account from their dashboard." style="whiteSpace=wrap;html=1;fillColor=#FFFFFF;" vertex="1" parent="1">
          <mxGeometry x="820" y="730" width="223" height="60" as="geometry" />
        </mxCell>
        <mxCell id="Wp4pYhGXArnTnSWNhsdR-44" value="" style="edgeStyle=orthogonalEdgeStyle;rounded=0;orthogonalLoop=1;jettySize=auto;html=1;" edge="1" parent="1" source="Wp4pYhGXArnTnSWNhsdR-41" target="Wp4pYhGXArnTnSWNhsdR-43">
          <mxGeometry relative="1" as="geometry">
            <Array as="points">
              <mxPoint x="472" y="800" />
              <mxPoint x="931" y="800" />
            </Array>
          </mxGeometry>
        </mxCell>
        <mxCell id="Wp4pYhGXArnTnSWNhsdR-41" value="User can select and view pet medical data" style="whiteSpace=wrap;html=1;fillColor=#FFFFFF;" vertex="1" parent="1">
          <mxGeometry x="360" y="730" width="223" height="60" as="geometry" />
        </mxCell>
        <mxCell id="Wp4pYhGXArnTnSWNhsdR-43" value="The system shall retrieve and display the complete medical records for the selected pet when requested by the user." style="whiteSpace=wrap;html=1;fillColor=#FFFFFF;" vertex="1" parent="1">
          <mxGeometry x="820" y="820" width="223" height="60" as="geometry" />
        </mxCell>
        <mxCell id="Wp4pYhGXArnTnSWNhsdR-45" value="&lt;font style=&quot;font-size: 14px;&quot;&gt;&lt;b&gt;SYSTEM&lt;/b&gt;&lt;/font&gt;" style="text;html=1;align=center;verticalAlign=middle;whiteSpace=wrap;rounded=0;" vertex="1" parent="1">
          <mxGeometry x="877" y="200" width="60" height="30" as="geometry" />
        </mxCell>
        <mxCell id="Wp4pYhGXArnTnSWNhsdR-46" value="&lt;font style=&quot;font-size: 14px;&quot;&gt;&lt;b&gt;Other&lt;/b&gt;&lt;/font&gt;" style="text;html=1;align=center;verticalAlign=middle;whiteSpace=wrap;rounded=0;" vertex="1" parent="1">
          <mxGeometry x="1280" y="200" width="60" height="30" as="geometry" />
        </mxCell>
        <mxCell id="Wp4pYhGXArnTnSWNhsdR-48" value="" style="edgeStyle=orthogonalEdgeStyle;rounded=0;orthogonalLoop=1;jettySize=auto;html=1;" edge="1" parent="1" source="Wp4pYhGXArnTnSWNhsdR-47" target="Wp4pYhGXArnTnSWNhsdR-22">
          <mxGeometry relative="1" as="geometry" />
        </mxCell>
        <mxCell id="Wp4pYhGXArnTnSWNhsdR-47" value="&lt;font style=&quot;font-size: 14px;&quot;&gt;&lt;b&gt;USER&lt;/b&gt;&lt;/font&gt;" style="text;html=1;align=center;verticalAlign=middle;whiteSpace=wrap;rounded=0;" vertex="1" parent="1">
          <mxGeometry x="425" y="200" width="60" height="30" as="geometry" />
        </mxCell>
      </root>
    </mxGraphModel>
  </diagram>
  <diagram id="LyhUKKYTtQNLmeVIs55b" name="Requirements">
    <mxGraphModel dx="1194" dy="500" grid="1" gridSize="10" guides="1" tooltips="1" connect="1" arrows="1" fold="1" page="1" pageScale="1" pageWidth="850" pageHeight="1100" math="0" shadow="0">
      <root>
        <mxCell id="0" />
        <mxCell id="1" parent="0" />
        <mxCell id="2sF01I_1pFN8zLx_FeaN-6" value="&lt;p style=&quot;margin:0px;margin-top:4px;margin-left:7px;text-align:left;&quot;&gt;&lt;b&gt;req&lt;/b&gt;  ReqDiagram&lt;/p&gt;" style="html=1;shape=mxgraph.sysml.package;overflow=fill;labelX=110;strokeWidth=2;align=center;" vertex="1" parent="1">
          <mxGeometry x="80" y="40" width="720" height="600" as="geometry" />
        </mxCell>
        <mxCell id="2sF01I_1pFN8zLx_FeaN-26" value="" style="edgeStyle=orthogonalEdgeStyle;rounded=0;orthogonalLoop=1;jettySize=auto;html=1;" edge="1" parent="1" source="2sF01I_1pFN8zLx_FeaN-12">
          <mxGeometry relative="1" as="geometry">
            <mxPoint x="470" y="200" as="targetPoint" />
          </mxGeometry>
        </mxCell>
        <mxCell id="2sF01I_1pFN8zLx_FeaN-12" value="" style="fontStyle=1;align=center;verticalAlign=middle;childLayout=stackLayout;horizontal=1;horizontalStack=0;resizeParent=1;resizeParentMax=0;resizeLast=0;marginBottom=0;" vertex="1" parent="1">
          <mxGeometry x="200" y="60" width="540" height="100" as="geometry" />
        </mxCell>
        <mxCell id="2sF01I_1pFN8zLx_FeaN-13" value="&amp;lt;&amp;lt;requirement&amp;gt;&amp;gt;" style="html=1;align=center;spacing=0;verticalAlign=middle;strokeColor=none;fillColor=none;whiteSpace=wrap;spacingTop=3;" vertex="1" parent="2sF01I_1pFN8zLx_FeaN-12">
          <mxGeometry width="540" height="16" as="geometry" />
        </mxCell>
        <mxCell id="2sF01I_1pFN8zLx_FeaN-14" value="&lt;span style=&quot;font-weight: 400;&quot;&gt;Create&lt;/span&gt;" style="html=1;align=center;spacing=0;verticalAlign=middle;strokeColor=none;fillColor=none;whiteSpace=wrap;fontStyle=1" vertex="1" parent="2sF01I_1pFN8zLx_FeaN-12">
          <mxGeometry y="16" width="540" height="18" as="geometry" />
        </mxCell>
        <mxCell id="2sF01I_1pFN8zLx_FeaN-15" value="" style="line;strokeWidth=0.25;fillColor=none;align=left;verticalAlign=middle;spacingTop=-1;spacingLeft=3;spacingRight=3;rotatable=0;labelPosition=right;points=[];portConstraint=eastwest;" vertex="1" parent="2sF01I_1pFN8zLx_FeaN-12">
          <mxGeometry y="34" width="540" height="8" as="geometry" />
        </mxCell>
        <mxCell id="2sF01I_1pFN8zLx_FeaN-16" value="text=&quot;The system shall allow users to create an account by providing a valid email address and a password.&quot;" style="html=1;align=left;spacing=0;verticalAlign=middle;strokeColor=none;fillColor=none;whiteSpace=wrap;spacingLeft=10;" vertex="1" parent="2sF01I_1pFN8zLx_FeaN-12">
          <mxGeometry y="42" width="540" height="16" as="geometry" />
        </mxCell>
        <mxCell id="2sF01I_1pFN8zLx_FeaN-18" value="" style="html=1;align=center;spacing=0;verticalAlign=middle;strokeColor=none;fillColor=none;whiteSpace=wrap;" vertex="1" parent="2sF01I_1pFN8zLx_FeaN-12">
          <mxGeometry y="58" width="540" height="26" as="geometry" />
        </mxCell>
        <mxCell id="2sF01I_1pFN8zLx_FeaN-17" value="Id=&quot;OR.1.1&quot;" style="html=1;align=left;spacing=0;verticalAlign=middle;strokeColor=none;fillColor=none;whiteSpace=wrap;spacingLeft=10;" vertex="1" parent="2sF01I_1pFN8zLx_FeaN-12">
          <mxGeometry y="84" width="540" height="16" as="geometry" />
        </mxCell>
        <mxCell id="2sF01I_1pFN8zLx_FeaN-36" value="" style="edgeStyle=orthogonalEdgeStyle;rounded=0;orthogonalLoop=1;jettySize=auto;html=1;" edge="1" parent="1" source="2sF01I_1pFN8zLx_FeaN-19">
          <mxGeometry relative="1" as="geometry">
            <mxPoint x="470" y="350" as="targetPoint" />
          </mxGeometry>
        </mxCell>
        <mxCell id="2sF01I_1pFN8zLx_FeaN-19" value="" style="fontStyle=1;align=center;verticalAlign=middle;childLayout=stackLayout;horizontal=1;horizontalStack=0;resizeParent=1;resizeParentMax=0;resizeLast=0;marginBottom=0;" vertex="1" parent="1">
          <mxGeometry x="200" y="200" width="540" height="100" as="geometry" />
        </mxCell>
        <mxCell id="2sF01I_1pFN8zLx_FeaN-20" value="&amp;lt;&amp;lt;requirement&amp;gt;&amp;gt;" style="html=1;align=center;spacing=0;verticalAlign=middle;strokeColor=none;fillColor=none;whiteSpace=wrap;spacingTop=3;" vertex="1" parent="2sF01I_1pFN8zLx_FeaN-19">
          <mxGeometry width="540" height="16" as="geometry" />
        </mxCell>
        <mxCell id="2sF01I_1pFN8zLx_FeaN-21" value="&lt;span style=&quot;font-weight: 400;&quot;&gt;Validate&lt;/span&gt;" style="html=1;align=center;spacing=0;verticalAlign=middle;strokeColor=none;fillColor=none;whiteSpace=wrap;fontStyle=1" vertex="1" parent="2sF01I_1pFN8zLx_FeaN-19">
          <mxGeometry y="16" width="540" height="18" as="geometry" />
        </mxCell>
        <mxCell id="2sF01I_1pFN8zLx_FeaN-22" value="" style="line;strokeWidth=0.25;fillColor=none;align=left;verticalAlign=middle;spacingTop=-1;spacingLeft=3;spacingRight=3;rotatable=0;labelPosition=right;points=[];portConstraint=eastwest;" vertex="1" parent="2sF01I_1pFN8zLx_FeaN-19">
          <mxGeometry y="34" width="540" height="8" as="geometry" />
        </mxCell>
        <mxCell id="2sF01I_1pFN8zLx_FeaN-23" value="text=&quot;The system shall validate the email format and password strength upon registration submission.&quot;" style="html=1;align=left;spacing=0;verticalAlign=middle;strokeColor=none;fillColor=none;whiteSpace=wrap;spacingLeft=10;" vertex="1" parent="2sF01I_1pFN8zLx_FeaN-19">
          <mxGeometry y="42" width="540" height="16" as="geometry" />
        </mxCell>
        <mxCell id="2sF01I_1pFN8zLx_FeaN-24" value="" style="html=1;align=center;spacing=0;verticalAlign=middle;strokeColor=none;fillColor=none;whiteSpace=wrap;" vertex="1" parent="2sF01I_1pFN8zLx_FeaN-19">
          <mxGeometry y="58" width="540" height="26" as="geometry" />
        </mxCell>
        <mxCell id="2sF01I_1pFN8zLx_FeaN-25" value="Id=&quot;OR.1.2&quot;" style="html=1;align=left;spacing=0;verticalAlign=middle;strokeColor=none;fillColor=none;whiteSpace=wrap;spacingLeft=10;" vertex="1" parent="2sF01I_1pFN8zLx_FeaN-19">
          <mxGeometry y="84" width="540" height="16" as="geometry" />
        </mxCell>
        <mxCell id="2sF01I_1pFN8zLx_FeaN-29" value="" style="fontStyle=1;align=center;verticalAlign=middle;childLayout=stackLayout;horizontal=1;horizontalStack=0;resizeParent=1;resizeParentMax=0;resizeLast=0;marginBottom=0;" vertex="1" parent="1">
          <mxGeometry x="200" y="350" width="540" height="100" as="geometry" />
        </mxCell>
        <mxCell id="2sF01I_1pFN8zLx_FeaN-30" value="&amp;lt;&amp;lt;requirement&amp;gt;&amp;gt;" style="html=1;align=center;spacing=0;verticalAlign=middle;strokeColor=none;fillColor=none;whiteSpace=wrap;spacingTop=3;" vertex="1" parent="2sF01I_1pFN8zLx_FeaN-29">
          <mxGeometry width="540" height="16" as="geometry" />
        </mxCell>
        <mxCell id="2sF01I_1pFN8zLx_FeaN-31" value="&lt;span style=&quot;font-weight: 400;&quot;&gt;Create_User_Success&lt;/span&gt;" style="html=1;align=center;spacing=0;verticalAlign=middle;strokeColor=none;fillColor=none;whiteSpace=wrap;fontStyle=1" vertex="1" parent="2sF01I_1pFN8zLx_FeaN-29">
          <mxGeometry y="16" width="540" height="18" as="geometry" />
        </mxCell>
        <mxCell id="2sF01I_1pFN8zLx_FeaN-32" value="" style="line;strokeWidth=0.25;fillColor=none;align=left;verticalAlign=middle;spacingTop=-1;spacingLeft=3;spacingRight=3;rotatable=0;labelPosition=right;points=[];portConstraint=eastwest;" vertex="1" parent="2sF01I_1pFN8zLx_FeaN-29">
          <mxGeometry y="34" width="540" height="8" as="geometry" />
        </mxCell>
        <mxCell id="2sF01I_1pFN8zLx_FeaN-33" value="text=&quot;The system shall create a user account upon successful validation and store user information securely.&quot;" style="html=1;align=left;spacing=0;verticalAlign=middle;strokeColor=none;fillColor=none;whiteSpace=wrap;spacingLeft=10;" vertex="1" parent="2sF01I_1pFN8zLx_FeaN-29">
          <mxGeometry y="42" width="540" height="16" as="geometry" />
        </mxCell>
        <mxCell id="2sF01I_1pFN8zLx_FeaN-34" value="" style="html=1;align=center;spacing=0;verticalAlign=middle;strokeColor=none;fillColor=none;whiteSpace=wrap;" vertex="1" parent="2sF01I_1pFN8zLx_FeaN-29">
          <mxGeometry y="58" width="540" height="26" as="geometry" />
        </mxCell>
        <mxCell id="2sF01I_1pFN8zLx_FeaN-35" value="Id=&quot;OR.1.3&quot;" style="html=1;align=left;spacing=0;verticalAlign=middle;strokeColor=none;fillColor=none;whiteSpace=wrap;spacingLeft=10;" vertex="1" parent="2sF01I_1pFN8zLx_FeaN-29">
          <mxGeometry y="84" width="540" height="16" as="geometry" />
        </mxCell>
        <mxCell id="2sF01I_1pFN8zLx_FeaN-37" value="" style="edgeStyle=orthogonalEdgeStyle;rounded=0;orthogonalLoop=1;jettySize=auto;html=1;" edge="1" parent="1">
          <mxGeometry relative="1" as="geometry">
            <mxPoint x="470" y="450" as="sourcePoint" />
            <mxPoint x="470" y="500" as="targetPoint" />
          </mxGeometry>
        </mxCell>
        <mxCell id="2sF01I_1pFN8zLx_FeaN-38" value="" style="fontStyle=1;align=center;verticalAlign=middle;childLayout=stackLayout;horizontal=1;horizontalStack=0;resizeParent=1;resizeParentMax=0;resizeLast=0;marginBottom=0;" vertex="1" parent="1">
          <mxGeometry x="200" y="500" width="540" height="100" as="geometry" />
        </mxCell>
        <mxCell id="2sF01I_1pFN8zLx_FeaN-39" value="&amp;lt;&amp;lt;requirement&amp;gt;&amp;gt;" style="html=1;align=center;spacing=0;verticalAlign=middle;strokeColor=none;fillColor=none;whiteSpace=wrap;spacingTop=3;" vertex="1" parent="2sF01I_1pFN8zLx_FeaN-38">
          <mxGeometry width="540" height="16" as="geometry" />
        </mxCell>
        <mxCell id="2sF01I_1pFN8zLx_FeaN-40" value="&lt;span style=&quot;font-weight: 400;&quot;&gt;Send_confirmation_email&lt;/span&gt;" style="html=1;align=center;spacing=0;verticalAlign=middle;strokeColor=none;fillColor=none;whiteSpace=wrap;fontStyle=1" vertex="1" parent="2sF01I_1pFN8zLx_FeaN-38">
          <mxGeometry y="16" width="540" height="18" as="geometry" />
        </mxCell>
        <mxCell id="2sF01I_1pFN8zLx_FeaN-41" value="" style="line;strokeWidth=0.25;fillColor=none;align=left;verticalAlign=middle;spacingTop=-1;spacingLeft=3;spacingRight=3;rotatable=0;labelPosition=right;points=[];portConstraint=eastwest;" vertex="1" parent="2sF01I_1pFN8zLx_FeaN-38">
          <mxGeometry y="34" width="540" height="8" as="geometry" />
        </mxCell>
        <mxCell id="2sF01I_1pFN8zLx_FeaN-42" value="text=&quot;The system shall send a confirmation email to the user after account creation.&quot;" style="html=1;align=left;spacing=0;verticalAlign=middle;strokeColor=none;fillColor=none;whiteSpace=wrap;spacingLeft=10;" vertex="1" parent="2sF01I_1pFN8zLx_FeaN-38">
          <mxGeometry y="42" width="540" height="16" as="geometry" />
        </mxCell>
        <mxCell id="2sF01I_1pFN8zLx_FeaN-43" value="" style="html=1;align=center;spacing=0;verticalAlign=middle;strokeColor=none;fillColor=none;whiteSpace=wrap;" vertex="1" parent="2sF01I_1pFN8zLx_FeaN-38">
          <mxGeometry y="58" width="540" height="26" as="geometry" />
        </mxCell>
        <mxCell id="2sF01I_1pFN8zLx_FeaN-44" value="Id=&quot;OR.1.4&quot;" style="html=1;align=left;spacing=0;verticalAlign=middle;strokeColor=none;fillColor=none;whiteSpace=wrap;spacingLeft=10;" vertex="1" parent="2sF01I_1pFN8zLx_FeaN-38">
          <mxGeometry y="84" width="540" height="16" as="geometry" />
        </mxCell>
      </root>
    </mxGraphModel>
  </diagram>
</mxfile>
